<svg width="932" height="516" viewBox="0 0 932 516" fill="none" xmlns="http://www.w3.org/2000/svg">
<path d="M645.253 126.416C643.087 93.3452 609.738 74.6586 592.847 70.7599L514.455 46.9648C471.144 40.1892 456.274 70.7599 454.253 86.8922V134.079C460.836 153.761 489.623 167.554 503.194 171.99L575.09 194.172C628.795 209.498 644.82 175.217 645.253 154.648V126.416Z" stroke="#B9A3A3" stroke-width="30"/>
<path d="M278.003 345C271.038 362.813 266.062 386.451 272.759 408.949C279.457 431.447 293.748 450.927 313.198 464.069C332.648 477.211 356.053 483.203 379.425 481.023C402.797 478.843 424.69 468.627 441.374 452.115C458.059 435.602 468.501 413.816 470.923 390.468C473.345 367.119 467.596 343.654 454.656 324.069C441.716 304.484 422.386 289.992 399.958 283.061C377.531 276.131 357.395 278.191 335.662 287.062C323.003 294.5 333.503 319 345.881 317.001C360.688 310.957 375.132 309.235 390.411 313.956C405.691 318.678 418.861 328.551 427.677 341.894C436.492 355.237 440.409 371.224 438.759 387.132C437.109 403.039 429.995 417.882 418.628 429.131C407.261 440.381 392.345 447.341 376.422 448.826C360.499 450.311 344.553 446.229 331.302 437.275C318.051 428.322 308.315 415.051 303.752 399.723C299.189 384.395 306.278 364.539 306.278 353.216C309.003 340.687 286.503 331 278.003 345Z" fill="#B9A3A3"/>
<rect x="440" y="139" width="31" height="238" fill="#B9A3A3"/>
</svg>
